# Blender v2.81 (sub 16) OBJ File: 'bend.blend'
# www.blender.org
mtllib bend.mtl
o Cube_Cube.001
v -0.338203 0.011291 0.489834
v -0.367504 0.011291 0.448708
v 0.051292 0.011291 -0.763236
v 0.109002 0.011291 -0.805439
v 0.263767 0.011291 0.446322
v 0.220256 0.011291 0.489834
v 0.220269 0.011291 -0.808197
v 0.263767 0.011291 -0.765764
v -0.321382 0.219158 0.442060
v -0.367504 0.177738 0.448708
v -0.316856 0.219158 0.448413
v -0.338203 0.177738 0.489834
v 0.122988 0.219158 -0.764353
v 0.109002 0.177738 -0.805439
v 0.086207 0.219158 -0.737454
v 0.051292 0.177738 -0.763236
v 0.203099 0.219158 0.448413
v 0.220256 0.177738 0.489834
v 0.222347 0.219158 0.429165
v 0.263767 0.177738 0.446322
v 0.222347 0.219158 -0.748306
v 0.263767 0.177738 -0.765764
v 0.203842 0.219158 -0.766357
v 0.220269 0.177738 -0.808197
vt 0.575184 0.304849
vt 0.375000 0.304849
vt 0.375000 0.242056
vt 0.575184 0.242056
vt 0.575184 0.508373
vt 0.375000 0.508373
vt 0.375000 0.445151
vt 0.575184 0.445151
vt 0.375000 0.766852
vt 0.575184 0.766852
vt 0.575184 0.983148
vt 0.375000 0.983148
vt 0.671467 0.511567
vt 0.695129 0.508003
vt 0.793044 0.508025
vt 0.828711 0.513084
vt 0.856958 0.740777
vt 0.854363 0.742005
vt 0.650315 0.742019
vt 0.642908 0.738315
vt 0.375000 0.741627
vt 0.575184 0.741627
vt 0.375000 0.007944
vt 0.575184 0.007944
vt 0.125000 0.507944
vt 0.179849 0.500000
vt 0.320151 0.500000
vt 0.358148 0.750000
vt 0.141852 0.750000
vt 0.125000 0.742056
vt 0.875000 0.742056
vt 0.858148 0.750000
vt 0.820151 0.500000
vt 0.875000 0.507944
vt 0.625000 0.508373
vt 0.679849 0.500000
vt 0.641852 0.750000
vt 0.625000 0.741627
vt 0.625000 0.321191
vt 0.625000 0.423144
vt 0.575184 1.000000
vt 0.375000 1.000000
vn -0.5903 0.0000 -0.8072
vn 0.6983 0.0000 -0.7158
vn 0.0000 0.0000 1.0000
vn 0.0000 1.0000 0.0000
vn 0.7071 0.0000 0.7071
vn -0.9452 0.0000 -0.3266
vn -0.0248 0.0000 -0.9997
vn 1.0000 0.0000 0.0000
vn 0.0000 -1.0000 0.0000
vn -0.5759 0.7071 0.4103
vn -0.4174 0.7071 -0.5708
vn 0.4938 0.7071 -0.5062
vn 0.5000 0.7071 0.5000
vn -0.6683 0.7071 -0.2309
vn 0.0000 0.7071 0.7071
vn 0.7071 0.7071 0.0000
vn -0.0175 0.7071 -0.7069
vn -0.8144 0.0000 0.5803
usemtl Material.001
s off
f 14/1/1 4/2/1 3/3/1 16/4/1
f 22/5/2 8/6/2 7/7/2 24/8/2
f 6/9/3 18/10/3 12/11/3 1/12/3
f 21/13/4 23/14/4 13/15/4 15/16/4 9/17/4 11/18/4 17/19/4 19/20/4
f 18/10/5 6/9/5 5/21/5 20/22/5
f 2/23/6 10/24/6 16/4/6 3/3/6
f 4/2/7 14/1/7 24/8/7 7/7/7
f 8/6/8 22/5/8 20/22/8 5/21/8
f 3/25/9 4/26/9 7/27/9 8/6/9 5/21/9 6/28/9 1/29/9 2/30/9
f 11/18/10 9/17/10 10/31/10 12/32/10
f 15/16/11 13/15/11 14/33/11 16/34/11
f 23/14/12 21/13/12 22/35/12 24/36/12
f 19/20/13 17/19/13 18/37/13 20/38/13
f 9/17/14 15/16/14 16/34/14 10/31/14
f 17/19/15 11/18/15 12/32/15 18/37/15
f 20/22/16 22/5/16 21/13/16 19/20/16
f 24/8/17 14/1/17 13/39/17 23/40/17
f 1/12/18 12/11/18 10/41/18 2/42/18
