# Blender v2.81 (sub 16) OBJ File: 'Bumper.blend'
# www.blender.org
mtllib Bumper.mtl
o Cylinder
v 0.000000 -0.007975 -0.612971
v 0.119585 -0.007975 -0.601193
v 0.234574 -0.007975 -0.566311
v 0.340548 -0.007975 -0.509667
v 0.433436 -0.007975 -0.433436
v 0.509667 -0.007975 -0.340548
v 0.566311 -0.007975 -0.234574
v 0.601193 -0.007975 -0.119585
v 0.612971 -0.007975 -0.000000
v 0.601193 -0.007975 0.119585
v 0.566311 -0.007975 0.234574
v 0.509667 -0.007975 0.340548
v 0.433436 -0.007975 0.433436
v 0.340548 -0.007975 0.509667
v 0.234574 -0.007975 0.566311
v 0.119585 -0.007975 0.601193
v -0.000000 -0.007975 0.612971
v -0.119585 -0.007975 0.601193
v -0.234574 -0.007975 0.566311
v -0.340549 -0.007975 0.509666
v -0.433436 -0.007975 0.433435
v -0.509667 -0.007975 0.340548
v -0.566311 -0.007975 0.234573
v -0.601193 -0.007975 0.119584
v -0.612971 -0.007975 -0.000001
v -0.601193 -0.007975 -0.119585
v -0.566311 -0.007975 -0.234575
v -0.509666 -0.007975 -0.340549
v -0.433435 -0.007975 -0.433437
v -0.340548 -0.007975 -0.509667
v -0.234573 -0.007975 -0.566312
v -0.119584 -0.007975 -0.601193
v 0.000000 0.126733 -0.471167
v 0.000000 0.291694 -0.471167
v 0.091920 0.291694 -0.462113
v 0.091920 0.126733 -0.462113
v 0.180308 0.291694 -0.435301
v 0.180308 0.126733 -0.435301
v 0.261766 0.291694 -0.391761
v 0.261766 0.126733 -0.391761
v 0.333165 0.291694 -0.333165
v 0.333165 0.126733 -0.333165
v 0.391761 0.291694 -0.261766
v 0.391761 0.126733 -0.261766
v 0.435301 0.291694 -0.180308
v 0.435301 0.126733 -0.180308
v 0.462113 0.291694 -0.091920
v 0.462113 0.126733 -0.091920
v 0.471167 0.291694 -0.000000
v 0.471167 0.126733 -0.000000
v 0.462113 0.291694 0.091920
v 0.462113 0.126733 0.091920
v 0.435301 0.291694 0.180307
v 0.435301 0.126733 0.180307
v 0.391761 0.291694 0.261766
v 0.391761 0.126733 0.261766
v 0.333165 0.291694 0.333165
v 0.333165 0.126733 0.333165
v 0.261766 0.291694 0.391761
v 0.261766 0.126733 0.391761
v 0.180308 0.291694 0.435301
v 0.180308 0.126733 0.435301
v 0.091920 0.291694 0.462113
v 0.091920 0.126733 0.462113
v -0.000000 0.291694 0.471166
v -0.000000 0.126733 0.471166
v -0.091920 0.291694 0.462113
v -0.091920 0.126733 0.462113
v -0.180308 0.291694 0.435301
v -0.180308 0.126733 0.435301
v -0.261766 0.291694 0.391760
v -0.261766 0.126733 0.391760
v -0.333165 0.291694 0.333165
v -0.333165 0.126733 0.333165
v -0.391761 0.291694 0.261766
v -0.391761 0.126733 0.261766
v -0.435301 0.291694 0.180307
v -0.435301 0.126733 0.180307
v -0.462113 0.291694 0.091919
v -0.462113 0.126733 0.091919
v -0.471167 0.291694 -0.000001
v -0.471167 0.126733 -0.000001
v -0.462113 0.291694 -0.091921
v -0.462113 0.126733 -0.091921
v -0.435301 0.291694 -0.180308
v -0.435301 0.126733 -0.180308
v -0.391760 0.291694 -0.261767
v -0.391760 0.126733 -0.261767
v -0.333165 0.291694 -0.333166
v -0.333165 0.126733 -0.333166
v -0.261766 0.291694 -0.391761
v -0.261766 0.126733 -0.391761
v -0.180307 0.291694 -0.435302
v -0.180307 0.126733 -0.435302
v -0.091919 0.291694 -0.462114
v -0.091919 0.126733 -0.462114
v 0.000000 0.467922 -1.000000
v 0.195090 0.467922 -0.980785
v 0.382683 0.467922 -0.923880
v 0.555570 0.467922 -0.831470
v 0.707107 0.467922 -0.707107
v 0.831470 0.467922 -0.555570
v 0.923880 0.467922 -0.382683
v 0.980785 0.467922 -0.195090
v 1.000000 0.467922 -0.000000
v 0.980785 0.467922 0.195090
v 0.923880 0.467922 0.382683
v 0.831470 0.467922 0.555570
v 0.707107 0.467922 0.707107
v 0.555570 0.467922 0.831470
v 0.382683 0.467922 0.923880
v 0.195090 0.467922 0.980785
v -0.000000 0.467922 1.000000
v -0.195091 0.467922 0.980785
v -0.382684 0.467922 0.923879
v -0.555571 0.467922 0.831469
v -0.707107 0.467922 0.707106
v -0.831470 0.467922 0.555570
v -0.923880 0.467922 0.382683
v -0.980785 0.467922 0.195089
v -1.000000 0.467922 -0.000001
v -0.980785 0.467922 -0.195091
v -0.923879 0.467922 -0.382684
v -0.831469 0.467922 -0.555571
v -0.707106 0.467922 -0.707108
v -0.555569 0.467922 -0.831470
v -0.382682 0.467922 -0.923880
v -0.195089 0.467922 -0.980786
v -0.000000 0.925461 -0.874980
v 0.000000 0.801043 -1.000000
v 0.170700 0.925461 -0.858167
v 0.195090 0.801043 -0.980785
v 0.334840 0.925461 -0.808376
v 0.382683 0.801043 -0.923880
v 0.486113 0.925461 -0.727519
v 0.555570 0.801043 -0.831470
v 0.618704 0.925461 -0.618704
v 0.707107 0.801043 -0.707107
v 0.727519 0.925461 -0.486113
v 0.831470 0.801043 -0.555570
v 0.808376 0.925461 -0.334840
v 0.923880 0.801043 -0.382683
v 0.858167 0.925461 -0.170700
v 0.980785 0.801043 -0.195090
v 0.874980 0.925461 -0.000000
v 1.000000 0.801043 -0.000000
v 0.858167 0.925461 0.170700
v 0.980785 0.801043 0.195090
v 0.808376 0.925461 0.334840
v 0.923880 0.801043 0.382683
v 0.727519 0.925461 0.486112
v 0.831470 0.801043 0.555570
v 0.618704 0.925461 0.618704
v 0.707107 0.801043 0.707107
v 0.486113 0.925461 0.727519
v 0.555570 0.801043 0.831470
v 0.334840 0.925461 0.808376
v 0.382683 0.801043 0.923880
v 0.170700 0.925461 0.858167
v 0.195090 0.801043 0.980785
v -0.000000 0.925461 0.874980
v -0.000000 0.801043 1.000000
v -0.170701 0.925461 0.858167
v -0.195091 0.801043 0.980785
v -0.334840 0.925461 0.808376
v -0.382684 0.801043 0.923879
v -0.486113 0.925461 0.727519
v -0.555571 0.801043 0.831469
v -0.618704 0.925461 0.618703
v -0.707107 0.801043 0.707106
v -0.727519 0.925461 0.486112
v -0.831470 0.801043 0.555570
v -0.808376 0.925461 0.334839
v -0.923880 0.801043 0.382683
v -0.858167 0.925461 0.170699
v -0.980785 0.801043 0.195089
v -0.874980 0.925461 -0.000001
v -1.000000 0.801043 -0.000001
v -0.858167 0.925461 -0.170701
v -0.980785 0.801043 -0.195091
v -0.808375 0.925461 -0.334841
v -0.923879 0.801043 -0.382684
v -0.727518 0.925461 -0.486114
v -0.831469 0.801043 -0.555571
v -0.618703 0.925461 -0.618705
v -0.707106 0.801043 -0.707108
v -0.486112 0.925461 -0.727520
v -0.555569 0.801043 -0.831470
v -0.334839 0.925461 -0.808376
v -0.382682 0.801043 -0.923880
v -0.170699 0.925461 -0.858167
v -0.195089 0.801043 -0.980786
vt 0.031250 0.829831
vt 0.031250 0.968895
vt 0.000000 0.968895
vt 0.000000 0.829831
vt 0.937500 0.829831
vt 0.937500 0.968895
vt 0.906250 0.968895
vt 0.906250 0.829831
vt 0.875000 0.968895
vt 0.875000 0.829831
vt 0.843750 0.968895
vt 0.843750 0.829831
vt 0.812500 0.968895
vt 0.812500 0.829831
vt 0.781250 0.968895
vt 0.781250 0.829831
vt 0.750000 0.968895
vt 0.750000 0.829831
vt 0.718750 0.968895
vt 0.718750 0.829831
vt 0.687500 0.968895
vt 0.687500 0.829831
vt 0.656250 0.968895
vt 0.656250 0.829831
vt 0.625000 0.968895
vt 0.625000 0.829831
vt 0.593750 0.968895
vt 0.593750 0.829831
vt 0.562500 0.968895
vt 0.562500 0.829831
vt 0.531250 0.968895
vt 0.531250 0.829831
vt 0.500000 0.968895
vt 0.500000 0.829831
vt 0.468750 0.968895
vt 0.468750 0.829831
vt 0.437500 0.968895
vt 0.437500 0.829831
vt 0.406250 0.968895
vt 0.406250 0.829831
vt 0.375000 0.968895
vt 0.375000 0.829831
vt 0.343750 0.968895
vt 0.343750 0.829831
vt 0.312500 0.968895
vt 0.312500 0.829831
vt 0.281250 0.968895
vt 0.281250 0.829831
vt 0.250000 0.968895
vt 0.250000 0.829831
vt 0.218750 0.968895
vt 0.218750 0.829831
vt 0.187500 0.968895
vt 0.187500 0.829831
vt 0.156250 0.968895
vt 0.156250 0.829831
vt 0.125000 0.968895
vt 0.125000 0.829831
vt 0.093750 0.968895
vt 0.093750 0.829831
vt 0.062500 0.968895
vt 0.062500 0.829831
vt 1.000000 0.829831
vt 1.000000 0.968895
vt 0.968750 0.968895
vt 0.968750 0.829831
vt 0.750000 0.490000
vt 0.796822 0.485388
vt 0.841844 0.471731
vt 0.883337 0.449553
vt 0.919706 0.419706
vt 0.949553 0.383337
vt 0.971731 0.341844
vt 0.985388 0.296822
vt 0.990000 0.250000
vt 0.985388 0.203178
vt 0.971731 0.158156
vt 0.949553 0.116663
vt 0.919706 0.080294
vt 0.883337 0.050447
vt 0.841844 0.028269
vt 0.796822 0.014612
vt 0.750000 0.010000
vt 0.703178 0.014612
vt 0.658156 0.028269
vt 0.616663 0.050447
vt 0.580294 0.080294
vt 0.550447 0.116663
vt 0.528269 0.158156
vt 0.514611 0.203179
vt 0.510000 0.250000
vt 0.514612 0.296822
vt 0.528269 0.341844
vt 0.550447 0.383337
vt 0.580295 0.419706
vt 0.616663 0.449553
vt 0.658156 0.471731
vt 0.703179 0.485389
vt 0.031250 0.500000
vt 0.031250 0.619107
vt 0.000000 0.619107
vt 0.000000 0.500000
vt 0.031250 0.785774
vt 0.000000 0.785774
vt 0.062500 0.500000
vt 0.062500 0.619107
vt 0.062500 0.785774
vt 0.093750 0.500000
vt 0.093750 0.619107
vt 0.093750 0.785774
vt 0.125000 0.500000
vt 0.125000 0.619107
vt 0.125000 0.785774
vt 0.156250 0.500000
vt 0.156250 0.619107
vt 0.156250 0.785774
vt 0.187500 0.500000
vt 0.187500 0.619107
vt 0.187500 0.785774
vt 0.218750 0.500000
vt 0.218750 0.619107
vt 0.218750 0.785774
vt 0.250000 0.500000
vt 0.250000 0.619107
vt 0.250000 0.785774
vt 0.281250 0.500000
vt 0.281250 0.619107
vt 0.281250 0.785774
vt 0.312500 0.500000
vt 0.312500 0.619107
vt 0.312500 0.785774
vt 0.343750 0.500000
vt 0.343750 0.619107
vt 0.343750 0.785774
vt 0.375000 0.500000
vt 0.375000 0.619107
vt 0.375000 0.785774
vt 0.406250 0.500000
vt 0.406250 0.619107
vt 0.406250 0.785774
vt 0.437500 0.500000
vt 0.437500 0.619107
vt 0.437500 0.785774
vt 0.468750 0.500000
vt 0.468750 0.619107
vt 0.468750 0.785774
vt 0.500000 0.500000
vt 0.500000 0.619107
vt 0.500000 0.785774
vt 0.531250 0.500000
vt 0.531250 0.619107
vt 0.531250 0.785774
vt 0.562500 0.500000
vt 0.562500 0.619107
vt 0.562500 0.785774
vt 0.593750 0.500000
vt 0.593750 0.619107
vt 0.593750 0.785774
vt 0.625000 0.500000
vt 0.625000 0.619107
vt 0.625000 0.785774
vt 0.656250 0.500000
vt 0.656250 0.619107
vt 0.656250 0.785774
vt 0.687500 0.500000
vt 0.687500 0.619107
vt 0.687500 0.785774
vt 0.718750 0.500000
vt 0.718750 0.619107
vt 0.718750 0.785774
vt 0.750000 0.500000
vt 0.750000 0.619107
vt 0.750000 0.785774
vt 0.781250 0.500000
vt 0.781250 0.619107
vt 0.781250 0.785774
vt 0.812500 0.500000
vt 0.812500 0.619107
vt 0.812500 0.785774
vt 0.843750 0.500000
vt 0.843750 0.619107
vt 0.843750 0.785774
vt 0.875000 0.500000
vt 0.875000 0.619107
vt 0.875000 0.785774
vt 0.906250 0.500000
vt 0.906250 0.619107
vt 0.906250 0.785774
vt 0.937500 0.500000
vt 0.937500 0.619107
vt 0.937500 0.785774
vt 0.968750 0.500000
vt 0.968750 0.619107
vt 0.968750 0.785774
vt 1.000000 0.500000
vt 1.000000 0.619107
vt 1.000000 0.785774
vt 0.998047 1.000000
vt 0.970703 1.000000
vt 0.966797 1.000000
vt 0.939453 1.000000
vt 0.935547 1.000000
vt 0.908203 1.000000
vt 0.904297 1.000000
vt 0.876953 1.000000
vt 0.873047 1.000000
vt 0.845703 1.000000
vt 0.841797 1.000000
vt 0.814453 1.000000
vt 0.810547 1.000000
vt 0.783203 1.000000
vt 0.779297 1.000000
vt 0.751953 1.000000
vt 0.748047 1.000000
vt 0.720703 1.000000
vt 0.716797 1.000000
vt 0.689453 1.000000
vt 0.685547 1.000000
vt 0.658203 1.000000
vt 0.654297 1.000000
vt 0.626953 1.000000
vt 0.623047 1.000000
vt 0.595703 1.000000
vt 0.591797 1.000000
vt 0.564453 1.000000
vt 0.560547 1.000000
vt 0.533203 1.000000
vt 0.529297 1.000000
vt 0.501953 1.000000
vt 0.498047 1.000000
vt 0.470703 1.000000
vt 0.466797 1.000000
vt 0.439453 1.000000
vt 0.435547 1.000000
vt 0.408203 1.000000
vt 0.404297 1.000000
vt 0.376953 1.000000
vt 0.373047 1.000000
vt 0.345703 1.000000
vt 0.341797 1.000000
vt 0.314453 1.000000
vt 0.310547 1.000000
vt 0.283203 1.000000
vt 0.279297 1.000000
vt 0.251953 1.000000
vt 0.248047 1.000000
vt 0.220703 1.000000
vt 0.216797 1.000000
vt 0.189453 1.000000
vt 0.185547 1.000000
vt 0.158203 1.000000
vt 0.154297 1.000000
vt 0.126953 1.000000
vt 0.123047 1.000000
vt 0.095703 1.000000
vt 0.091797 1.000000
vt 0.064453 1.000000
vt 0.060547 1.000000
vt 0.033203 1.000000
vt 0.029297 1.000000
vt 0.001953 1.000000
vt 0.290968 0.455960
vt 0.250000 0.459995
vt 0.209032 0.455960
vt 0.169639 0.444010
vt 0.133333 0.424605
vt 0.101511 0.398489
vt 0.075396 0.366667
vt 0.055990 0.330362
vt 0.044040 0.290968
vt 0.040005 0.250000
vt 0.044040 0.209032
vt 0.055990 0.169639
vt 0.075396 0.133333
vt 0.101511 0.101511
vt 0.133333 0.075396
vt 0.169638 0.055990
vt 0.209032 0.044040
vt 0.250000 0.040005
vt 0.290968 0.044040
vt 0.330362 0.055990
vt 0.366667 0.075395
vt 0.398489 0.101511
vt 0.424605 0.133333
vt 0.444010 0.169638
vt 0.455960 0.209032
vt 0.459995 0.250000
vt 0.455960 0.290968
vt 0.444010 0.330362
vt 0.424605 0.366667
vt 0.398489 0.398489
vt 0.366667 0.424605
vt 0.330362 0.444010
vn -0.0980 0.0000 -0.9952
vn 0.4714 0.0000 -0.8819
vn 0.6344 0.0000 -0.7730
vn 0.7730 0.0000 -0.6344
vn 0.8819 0.0000 -0.4714
vn 0.9569 0.0000 -0.2903
vn 0.9952 0.0000 -0.0980
vn 0.9952 0.0000 0.0980
vn 0.9569 0.0000 0.2903
vn 0.8819 0.0000 0.4714
vn 0.7730 0.0000 0.6344
vn 0.6344 0.0000 0.7730
vn 0.4714 0.0000 0.8819
vn 0.2903 0.0000 0.9569
vn 0.0980 0.0000 0.9952
vn -0.0980 0.0000 0.9952
vn -0.2903 0.0000 0.9569
vn -0.4714 0.0000 0.8819
vn -0.6344 0.0000 0.7730
vn -0.7730 0.0000 0.6344
vn -0.8819 0.0000 0.4714
vn -0.9569 0.0000 0.2903
vn -0.9952 0.0000 0.0980
vn -0.9952 0.0000 -0.0980
vn -0.9569 0.0000 -0.2903
vn -0.8819 0.0000 -0.4714
vn -0.7730 0.0000 -0.6344
vn -0.6344 0.0000 -0.7730
vn -0.4714 0.0000 -0.8819
vn -0.2903 0.0000 -0.9569
vn 0.0980 0.0000 -0.9952
vn 0.2903 0.0000 -0.9569
vn 0.0000 -1.0000 -0.0000
vn -0.0677 0.7234 -0.6872
vn -0.2004 0.7234 -0.6607
vn -0.3255 0.7234 -0.6089
vn -0.4380 0.7234 -0.5337
vn -0.5337 0.7234 -0.4380
vn -0.6089 0.7234 -0.3255
vn -0.6607 0.7234 -0.2004
vn -0.6872 0.7234 -0.0677
vn -0.6872 0.7234 0.0677
vn -0.6607 0.7234 0.2004
vn -0.6089 0.7234 0.3255
vn -0.5337 0.7234 0.4380
vn -0.4380 0.7234 0.5337
vn -0.3255 0.7234 0.6089
vn -0.2004 0.7234 0.6607
vn -0.0677 0.7234 0.6872
vn 0.0677 0.7234 0.6872
vn 0.2004 0.7234 0.6607
vn 0.3255 0.7234 0.6089
vn 0.4380 0.7234 0.5337
vn 0.5337 0.7234 0.4380
vn 0.6089 0.7234 0.3255
vn 0.6607 0.7234 0.2004
vn 0.6872 0.7234 0.0677
vn 0.6872 0.7234 -0.0677
vn 0.6607 0.7234 -0.2004
vn 0.6089 0.7234 -0.3255
vn 0.5337 0.7234 -0.4380
vn 0.4380 0.7234 -0.5337
vn 0.3255 0.7234 -0.6089
vn 0.2004 0.7234 -0.6607
vn 0.0677 0.7234 -0.6872
vn -0.0311 -0.9483 -0.3160
vn -0.0922 -0.9483 -0.3039
vn -0.1497 -0.9483 -0.2800
vn -0.2014 -0.9483 -0.2454
vn -0.2454 -0.9483 -0.2014
vn -0.2800 -0.9483 -0.1497
vn -0.3039 -0.9483 -0.0922
vn -0.3160 -0.9483 -0.0311
vn -0.3160 -0.9483 0.0311
vn -0.3039 -0.9483 0.0922
vn -0.2800 -0.9483 0.1497
vn -0.2454 -0.9483 0.2014
vn -0.2014 -0.9483 0.2454
vn -0.1497 -0.9483 0.2800
vn -0.0922 -0.9483 0.3039
vn -0.0311 -0.9483 0.3160
vn 0.0311 -0.9483 0.3160
vn 0.0922 -0.9483 0.3039
vn 0.1497 -0.9483 0.2800
vn 0.2014 -0.9483 0.2454
vn 0.2454 -0.9483 0.2014
vn 0.2800 -0.9483 0.1497
vn 0.3039 -0.9483 0.0922
vn 0.3160 -0.9483 0.0311
vn 0.3160 -0.9483 -0.0311
vn 0.3039 -0.9483 -0.0922
vn 0.2800 -0.9483 -0.1497
vn 0.2454 -0.9483 -0.2014
vn 0.2014 -0.9483 -0.2454
vn 0.1497 -0.9483 -0.2800
vn 0.0922 -0.9483 -0.3039
vn 0.0311 -0.9483 -0.3160
vn 0.0693 0.7071 -0.7037
vn 0.2053 0.7071 -0.6767
vn 0.3333 0.7071 -0.6236
vn 0.4486 0.7071 -0.5466
vn 0.5466 0.7071 -0.4486
vn 0.6236 0.7071 -0.3333
vn 0.6767 0.7071 -0.2053
vn 0.7037 0.7071 -0.0693
vn 0.7037 0.7071 0.0693
vn 0.6767 0.7071 0.2053
vn 0.6236 0.7071 0.3333
vn 0.5466 0.7071 0.4486
vn 0.4486 0.7071 0.5466
vn 0.3333 0.7071 0.6236
vn 0.2053 0.7071 0.6767
vn 0.0693 0.7071 0.7037
vn -0.0693 0.7071 0.7037
vn -0.2053 0.7071 0.6767
vn -0.3333 0.7071 0.6236
vn -0.4486 0.7071 0.5466
vn -0.5466 0.7071 0.4486
vn -0.6236 0.7071 0.3333
vn -0.6767 0.7071 0.2053
vn -0.7037 0.7071 0.0693
vn -0.7037 0.7071 -0.0693
vn -0.6767 0.7071 -0.2053
vn -0.6236 0.7071 -0.3333
vn -0.5466 0.7071 -0.4486
vn -0.4486 0.7071 -0.5466
vn -0.3333 0.7071 -0.6236
vn -0.2053 0.7071 -0.6767
vn -0.0693 0.7071 -0.7037
vn 0.0000 1.0000 0.0000
usemtl Material.001
s off
f 128/1/1 192/2/1 130/3/1 97/4/1
f 99/5/2 134/6/2 136/7/2 100/8/2
f 100/8/3 136/7/3 138/9/3 101/10/3
f 101/10/4 138/9/4 140/11/4 102/12/4
f 102/12/5 140/11/5 142/13/5 103/14/5
f 103/14/6 142/13/6 144/15/6 104/16/6
f 104/16/7 144/15/7 146/17/7 105/18/7
f 105/18/8 146/17/8 148/19/8 106/20/8
f 106/20/9 148/19/9 150/21/9 107/22/9
f 107/22/10 150/21/10 152/23/10 108/24/10
f 108/24/11 152/23/11 154/25/11 109/26/11
f 109/26/12 154/25/12 156/27/12 110/28/12
f 110/28/13 156/27/13 158/29/13 111/30/13
f 111/30/14 158/29/14 160/31/14 112/32/14
f 112/32/15 160/31/15 162/33/15 113/34/15
f 113/34/16 162/33/16 164/35/16 114/36/16
f 114/36/17 164/35/17 166/37/17 115/38/17
f 115/38/18 166/37/18 168/39/18 116/40/18
f 116/40/19 168/39/19 170/41/19 117/42/19
f 117/42/20 170/41/20 172/43/20 118/44/20
f 118/44/21 172/43/21 174/45/21 119/46/21
f 119/46/22 174/45/22 176/47/22 120/48/22
f 120/48/23 176/47/23 178/49/23 121/50/23
f 121/50/24 178/49/24 180/51/24 122/52/24
f 122/52/25 180/51/25 182/53/25 123/54/25
f 123/54/26 182/53/26 184/55/26 124/56/26
f 124/56/27 184/55/27 186/57/27 125/58/27
f 125/58/28 186/57/28 188/59/28 126/60/28
f 126/60/29 188/59/29 190/61/29 127/62/29
f 127/62/30 190/61/30 192/2/30 128/1/30
f 97/63/31 130/64/31 132/65/31 98/66/31
f 98/66/32 132/65/32 134/6/32 99/5/32
f 1/67/33 2/68/33 3/69/33 4/70/33 5/71/33 6/72/33 7/73/33 8/74/33 9/75/33 10/76/33 11/77/33 12/78/33 13/79/33 14/80/33 15/81/33 16/82/33 17/83/33 18/84/33 19/85/33 20/86/33 21/87/33 22/88/33 23/89/33 24/90/33 25/91/33 26/92/33 27/93/33 28/94/33 29/95/33 30/96/33 31/97/33 32/98/33
f 32/99/34 96/100/34 33/101/34 1/102/34
f 96/100/1 95/103/1 34/104/1 33/101/1
f 31/105/35 94/106/35 96/100/35 32/99/35
f 94/106/30 93/107/30 95/103/30 96/100/30
f 30/108/36 92/109/36 94/106/36 31/105/36
f 92/109/29 91/110/29 93/107/29 94/106/29
f 29/111/37 90/112/37 92/109/37 30/108/37
f 90/112/28 89/113/28 91/110/28 92/109/28
f 28/114/38 88/115/38 90/112/38 29/111/38
f 88/115/27 87/116/27 89/113/27 90/112/27
f 27/117/39 86/118/39 88/115/39 28/114/39
f 86/118/26 85/119/26 87/116/26 88/115/26
f 26/120/40 84/121/40 86/118/40 27/117/40
f 84/121/25 83/122/25 85/119/25 86/118/25
f 25/123/41 82/124/41 84/121/41 26/120/41
f 82/124/24 81/125/24 83/122/24 84/121/24
f 24/126/42 80/127/42 82/124/42 25/123/42
f 80/127/23 79/128/23 81/125/23 82/124/23
f 23/129/43 78/130/43 80/127/43 24/126/43
f 78/130/22 77/131/22 79/128/22 80/127/22
f 22/132/44 76/133/44 78/130/44 23/129/44
f 76/133/21 75/134/21 77/131/21 78/130/21
f 21/135/45 74/136/45 76/133/45 22/132/45
f 74/136/20 73/137/20 75/134/20 76/133/20
f 20/138/46 72/139/46 74/136/46 21/135/46
f 72/139/19 71/140/19 73/137/19 74/136/19
f 19/141/47 70/142/47 72/139/47 20/138/47
f 70/142/18 69/143/18 71/140/18 72/139/18
f 18/144/48 68/145/48 70/142/48 19/141/48
f 68/145/17 67/146/17 69/143/17 70/142/17
f 17/147/49 66/148/49 68/145/49 18/144/49
f 66/148/16 65/149/16 67/146/16 68/145/16
f 16/150/50 64/151/50 66/148/50 17/147/50
f 64/151/15 63/152/15 65/149/15 66/148/15
f 15/153/51 62/154/51 64/151/51 16/150/51
f 62/154/14 61/155/14 63/152/14 64/151/14
f 14/156/52 60/157/52 62/154/52 15/153/52
f 60/157/13 59/158/13 61/155/13 62/154/13
f 13/159/53 58/160/53 60/157/53 14/156/53
f 58/160/12 57/161/12 59/158/12 60/157/12
f 12/162/54 56/163/54 58/160/54 13/159/54
f 56/163/11 55/164/11 57/161/11 58/160/11
f 11/165/55 54/166/55 56/163/55 12/162/55
f 54/166/10 53/167/10 55/164/10 56/163/10
f 10/168/56 52/169/56 54/166/56 11/165/56
f 52/169/9 51/170/9 53/167/9 54/166/9
f 9/171/57 50/172/57 52/169/57 10/168/57
f 50/172/8 49/173/8 51/170/8 52/169/8
f 8/174/58 48/175/58 50/172/58 9/171/58
f 48/175/7 47/176/7 49/173/7 50/172/7
f 7/177/59 46/178/59 48/175/59 8/174/59
f 46/178/6 45/179/6 47/176/6 48/175/6
f 6/180/60 44/181/60 46/178/60 7/177/60
f 44/181/5 43/182/5 45/179/5 46/178/5
f 5/183/61 42/184/61 44/181/61 6/180/61
f 42/184/4 41/185/4 43/182/4 44/181/4
f 4/186/62 40/187/62 42/184/62 5/183/62
f 40/187/3 39/188/3 41/185/3 42/184/3
f 3/189/63 38/190/63 40/187/63 4/186/63
f 38/190/2 37/191/2 39/188/2 40/187/2
f 2/192/64 36/193/64 38/190/64 3/189/64
f 36/193/32 35/194/32 37/191/32 38/190/32
f 1/195/65 33/196/65 36/193/65 2/192/65
f 33/196/31 34/197/31 35/194/31 36/193/31
f 95/103/66 128/1/66 97/4/66 34/104/66
f 93/107/67 127/62/67 128/1/67 95/103/67
f 91/110/68 126/60/68 127/62/68 93/107/68
f 89/113/69 125/58/69 126/60/69 91/110/69
f 87/116/70 124/56/70 125/58/70 89/113/70
f 85/119/71 123/54/71 124/56/71 87/116/71
f 83/122/72 122/52/72 123/54/72 85/119/72
f 81/125/73 121/50/73 122/52/73 83/122/73
f 79/128/74 120/48/74 121/50/74 81/125/74
f 77/131/75 119/46/75 120/48/75 79/128/75
f 75/134/76 118/44/76 119/46/76 77/131/76
f 73/137/77 117/42/77 118/44/77 75/134/77
f 71/140/78 116/40/78 117/42/78 73/137/78
f 69/143/79 115/38/79 116/40/79 71/140/79
f 67/146/80 114/36/80 115/38/80 69/143/80
f 65/149/81 113/34/81 114/36/81 67/146/81
f 63/152/82 112/32/82 113/34/82 65/149/82
f 61/155/83 111/30/83 112/32/83 63/152/83
f 59/158/84 110/28/84 111/30/84 61/155/84
f 57/161/85 109/26/85 110/28/85 59/158/85
f 55/164/86 108/24/86 109/26/86 57/161/86
f 53/167/87 107/22/87 108/24/87 55/164/87
f 51/170/88 106/20/88 107/22/88 53/167/88
f 49/173/89 105/18/89 106/20/89 51/170/89
f 47/176/90 104/16/90 105/18/90 49/173/90
f 45/179/91 103/14/91 104/16/91 47/176/91
f 43/182/92 102/12/92 103/14/92 45/179/92
f 41/185/93 101/10/93 102/12/93 43/182/93
f 39/188/94 100/8/94 101/10/94 41/185/94
f 37/191/95 99/5/95 100/8/95 39/188/95
f 35/194/96 98/66/96 99/5/96 37/191/96
f 34/197/97 97/63/97 98/66/97 35/194/97
f 132/65/98 130/64/98 129/198/98 131/199/98
f 134/6/99 132/65/99 131/200/99 133/201/99
f 136/7/100 134/6/100 133/202/100 135/203/100
f 138/9/101 136/7/101 135/204/101 137/205/101
f 140/11/102 138/9/102 137/206/102 139/207/102
f 142/13/103 140/11/103 139/208/103 141/209/103
f 144/15/104 142/13/104 141/210/104 143/211/104
f 146/17/105 144/15/105 143/212/105 145/213/105
f 148/19/106 146/17/106 145/214/106 147/215/106
f 150/21/107 148/19/107 147/216/107 149/217/107
f 152/23/108 150/21/108 149/218/108 151/219/108
f 154/25/109 152/23/109 151/220/109 153/221/109
f 156/27/110 154/25/110 153/222/110 155/223/110
f 158/29/111 156/27/111 155/224/111 157/225/111
f 160/31/112 158/29/112 157/226/112 159/227/112
f 162/33/113 160/31/113 159/228/113 161/229/113
f 164/35/114 162/33/114 161/230/114 163/231/114
f 166/37/115 164/35/115 163/232/115 165/233/115
f 168/39/116 166/37/116 165/234/116 167/235/116
f 170/41/117 168/39/117 167/236/117 169/237/117
f 172/43/118 170/41/118 169/238/118 171/239/118
f 174/45/119 172/43/119 171/240/119 173/241/119
f 176/47/120 174/45/120 173/242/120 175/243/120
f 178/49/121 176/47/121 175/244/121 177/245/121
f 180/51/122 178/49/122 177/246/122 179/247/122
f 182/53/123 180/51/123 179/248/123 181/249/123
f 184/55/124 182/53/124 181/250/124 183/251/124
f 186/57/125 184/55/125 183/252/125 185/253/125
f 188/59/126 186/57/126 185/254/126 187/255/126
f 190/61/127 188/59/127 187/256/127 189/257/127
f 192/2/128 190/61/128 189/258/128 191/259/128
f 130/3/129 192/2/129 191/260/129 129/261/129
f 131/262/130 129/263/130 191/264/130 189/265/130 187/266/130 185/267/130 183/268/130 181/269/130 179/270/130 177/271/130 175/272/130 173/273/130 171/274/130 169/275/130 167/276/130 165/277/130 163/278/130 161/279/130 159/280/130 157/281/130 155/282/130 153/283/130 151/284/130 149/285/130 147/286/130 145/287/130 143/288/130 141/289/130 139/290/130 137/291/130 135/292/130 133/293/130
