# Blender v2.81 (sub 16) OBJ File: 'plunger.blend'
# www.blender.org
mtllib plunger.mtl
o Cube
v 0.177342 0.336515 -0.587327
v 0.177342 -0.336515 -0.587327
v 0.177342 0.336515 0.587327
v 0.177342 -0.336515 0.587327
v -0.546689 0.336515 -0.587327
v -0.638349 0.336515 -0.495667
v -0.638349 -0.336515 -0.495667
v -0.546689 -0.336515 -0.587327
v -0.638349 0.336515 0.495667
v -0.546689 0.336515 0.587327
v -0.546689 -0.336515 0.587327
v -0.638349 -0.336515 0.495667
vt 0.125000 0.519508
vt 0.153093 0.500000
vt 0.375000 0.500000
vt 0.375000 0.750000
vt 0.153093 0.750000
vt 0.125000 0.730492
vt 0.625000 0.500000
vt 0.846907 0.500000
vt 0.875000 0.519508
vt 0.875000 0.730492
vt 0.846907 0.750000
vt 0.625000 0.750000
vt 0.625000 0.971907
vt 0.375000 0.971907
vt 0.375000 0.019508
vt 0.625000 0.019508
vt 0.625000 0.230492
vt 0.375000 0.230492
vt 0.625000 1.000000
vt 0.375000 1.000000
vt 0.625000 0.278093
vt 0.375000 0.278093
vn 0.0000 -1.0000 0.0000
vn 0.0000 1.0000 0.0000
vn 0.0000 0.0000 1.0000
vn 1.0000 0.0000 0.0000
vn -1.0000 0.0000 0.0000
vn -0.7071 0.0000 0.7071
vn -0.7071 0.0000 -0.7071
vn 0.0000 0.0000 -1.0000
usemtl a
s off
f 7/1/1 8/2/1 2/3/1 4/4/1 11/5/1 12/6/1
f 1/7/2 5/8/2 6/9/2 9/10/2 10/11/2 3/12/2
f 4/4/3 3/12/3 10/13/3 11/14/3
f 2/3/4 1/7/4 3/12/4 4/4/4
f 12/15/5 9/16/5 6/17/5 7/18/5
f 11/14/6 10/13/6 9/19/6 12/20/6
f 5/21/7 8/22/7 7/18/7 6/17/7
f 8/22/8 5/21/8 1/7/8 2/3/8
o Cylinder
v -1.736079 -0.000000 -0.078564
v -0.528173 -0.000000 -0.078564
v -1.736079 -0.015327 -0.077054
v -0.528173 -0.015327 -0.077054
v -1.736079 -0.030065 -0.072583
v -0.528173 -0.030065 -0.072583
v -1.736079 -0.043648 -0.065323
v -0.528173 -0.043648 -0.065323
v -1.736079 -0.055553 -0.055553
v -0.528173 -0.055553 -0.055553
v -1.736079 -0.065323 -0.043648
v -0.528173 -0.065323 -0.043648
v -1.736079 -0.072583 -0.030065
v -0.528173 -0.072583 -0.030065
v -1.736079 -0.077054 -0.015327
v -0.528173 -0.077054 -0.015327
v -1.736079 -0.078564 -0.000000
v -0.528173 -0.078564 -0.000000
v -1.736079 -0.077054 0.015327
v -0.528173 -0.077054 0.015327
v -1.736079 -0.072583 0.030065
v -0.528173 -0.072583 0.030065
v -1.736079 -0.065323 0.043648
v -0.528173 -0.065323 0.043648
v -1.736079 -0.055553 0.055553
v -0.528173 -0.055553 0.055553
v -1.736079 -0.043648 0.065323
v -0.528173 -0.043648 0.065323
v -1.736079 -0.030065 0.072583
v -0.528173 -0.030065 0.072583
v -1.736079 -0.015327 0.077054
v -0.528173 -0.015327 0.077054
v -1.736079 -0.000000 0.078564
v -0.528173 0.000000 0.078564
v -1.736079 0.015327 0.077054
v -0.528173 0.015327 0.077054
v -1.736079 0.030065 0.072583
v -0.528173 0.030065 0.072583
v -1.736079 0.043648 0.065323
v -0.528173 0.043648 0.065323
v -1.736079 0.055553 0.055553
v -0.528173 0.055553 0.055553
v -1.736079 0.065323 0.043648
v -0.528173 0.065323 0.043648
v -1.736079 0.072583 0.030065
v -0.528173 0.072583 0.030065
v -1.736079 0.077054 0.015327
v -0.528173 0.077054 0.015327
v -1.736079 0.078564 -0.000000
v -0.528173 0.078564 -0.000000
v -1.736079 0.077054 -0.015327
v -0.528173 0.077054 -0.015327
v -1.736079 0.072583 -0.030065
v -0.528173 0.072583 -0.030065
v -1.736079 0.065323 -0.043648
v -0.528173 0.065323 -0.043648
v -1.736079 0.055553 -0.055553
v -0.528173 0.055553 -0.055553
v -1.736079 0.043647 -0.065323
v -0.528173 0.043647 -0.065323
v -1.736079 0.030065 -0.072583
v -0.528173 0.030065 -0.072583
v -1.736079 0.015327 -0.077054
v -0.528173 0.015327 -0.077054
vt 1.000000 0.500000
vt 1.000000 1.000000
vt 0.968750 1.000000
vt 0.968750 0.500000
vt 0.937500 1.000000
vt 0.937500 0.500000
vt 0.906250 1.000000
vt 0.906250 0.500000
vt 0.875000 1.000000
vt 0.875000 0.500000
vt 0.843750 1.000000
vt 0.843750 0.500000
vt 0.812500 1.000000
vt 0.812500 0.500000
vt 0.781250 1.000000
vt 0.781250 0.500000
vt 0.750000 1.000000
vt 0.750000 0.500000
vt 0.718750 1.000000
vt 0.718750 0.500000
vt 0.687500 1.000000
vt 0.687500 0.500000
vt 0.656250 1.000000
vt 0.656250 0.500000
vt 0.625000 1.000000
vt 0.625000 0.500000
vt 0.593750 1.000000
vt 0.593750 0.500000
vt 0.562500 1.000000
vt 0.562500 0.500000
vt 0.531250 1.000000
vt 0.531250 0.500000
vt 0.500000 1.000000
vt 0.500000 0.500000
vt 0.468750 1.000000
vt 0.468750 0.500000
vt 0.437500 1.000000
vt 0.437500 0.500000
vt 0.406250 1.000000
vt 0.406250 0.500000
vt 0.375000 1.000000
vt 0.375000 0.500000
vt 0.343750 1.000000
vt 0.343750 0.500000
vt 0.312500 1.000000
vt 0.312500 0.500000
vt 0.281250 1.000000
vt 0.281250 0.500000
vt 0.250000 1.000000
vt 0.250000 0.500000
vt 0.218750 1.000000
vt 0.218750 0.500000
vt 0.187500 1.000000
vt 0.187500 0.500000
vt 0.156250 1.000000
vt 0.156250 0.500000
vt 0.125000 1.000000
vt 0.125000 0.500000
vt 0.093750 1.000000
vt 0.093750 0.500000
vt 0.062500 1.000000
vt 0.062500 0.500000
vt 0.296822 0.485388
vt 0.250000 0.490000
vt 0.203179 0.485389
vt 0.158156 0.471731
vt 0.116663 0.449553
vt 0.080295 0.419706
vt 0.050447 0.383337
vt 0.028269 0.341844
vt 0.014612 0.296822
vt 0.010000 0.250000
vt 0.014611 0.203179
vt 0.028269 0.158156
vt 0.050447 0.116663
vt 0.080294 0.080294
vt 0.116663 0.050447
vt 0.158156 0.028269
vt 0.203178 0.014612
vt 0.250000 0.010000
vt 0.296822 0.014612
vt 0.341844 0.028269
vt 0.383337 0.050447
vt 0.419706 0.080294
vt 0.449553 0.116663
vt 0.471731 0.158156
vt 0.485388 0.203178
vt 0.490000 0.250000
vt 0.485388 0.296822
vt 0.471731 0.341844
vt 0.449553 0.383337
vt 0.419706 0.419706
vt 0.383337 0.449553
vt 0.341844 0.471731
vt 0.031250 1.000000
vt 0.031250 0.500000
vt 0.000000 1.000000
vt 0.000000 0.500000
vt 0.750000 0.490000
vt 0.796822 0.485388
vt 0.841844 0.471731
vt 0.883337 0.449553
vt 0.919706 0.419706
vt 0.949553 0.383337
vt 0.971731 0.341844
vt 0.985388 0.296822
vt 0.990000 0.250000
vt 0.985388 0.203178
vt 0.971731 0.158156
vt 0.949553 0.116663
vt 0.919706 0.080294
vt 0.883337 0.050447
vt 0.841844 0.028269
vt 0.796822 0.014612
vt 0.750000 0.010000
vt 0.703178 0.014612
vt 0.658156 0.028269
vt 0.616663 0.050447
vt 0.580294 0.080294
vt 0.550447 0.116663
vt 0.528269 0.158156
vt 0.514611 0.203179
vt 0.510000 0.250000
vt 0.514612 0.296822
vt 0.528269 0.341844
vt 0.550447 0.383337
vt 0.580295 0.419706
vt 0.616663 0.449553
vt 0.658156 0.471731
vt 0.703179 0.485389
vn 0.0000 -0.0980 -0.9952
vn 0.0000 -0.2903 -0.9569
vn 0.0000 -0.4714 -0.8819
vn 0.0000 -0.6344 -0.7730
vn 0.0000 -0.7730 -0.6344
vn 0.0000 -0.8819 -0.4714
vn 0.0000 -0.9569 -0.2903
vn 0.0000 -0.9952 -0.0980
vn 0.0000 -0.9952 0.0980
vn 0.0000 -0.9569 0.2903
vn 0.0000 -0.8819 0.4714
vn 0.0000 -0.7730 0.6344
vn 0.0000 -0.6344 0.7730
vn 0.0000 -0.4714 0.8819
vn 0.0000 -0.2903 0.9569
vn -0.0000 -0.0980 0.9952
vn -0.0000 0.0980 0.9952
vn -0.0000 0.2903 0.9569
vn -0.0000 0.4714 0.8819
vn -0.0000 0.6344 0.7730
vn -0.0000 0.7730 0.6344
vn -0.0000 0.8819 0.4714
vn -0.0000 0.9569 0.2903
vn -0.0000 0.9952 0.0980
vn -0.0000 0.9952 -0.0980
vn -0.0000 0.9569 -0.2903
vn -0.0000 0.8819 -0.4714
vn -0.0000 0.7730 -0.6344
vn -0.0000 0.6344 -0.7730
vn -0.0000 0.4714 -0.8819
vn 1.0000 0.0000 0.0000
vn -0.0000 0.2903 -0.9569
vn -0.0000 0.0980 -0.9952
vn -1.0000 -0.0000 0.0000
usemtl Material.002
s off
f 13/23/9 14/24/9 16/25/9 15/26/9
f 15/26/10 16/25/10 18/27/10 17/28/10
f 17/28/11 18/27/11 20/29/11 19/30/11
f 19/30/12 20/29/12 22/31/12 21/32/12
f 21/32/13 22/31/13 24/33/13 23/34/13
f 23/34/14 24/33/14 26/35/14 25/36/14
f 25/36/15 26/35/15 28/37/15 27/38/15
f 27/38/16 28/37/16 30/39/16 29/40/16
f 29/40/17 30/39/17 32/41/17 31/42/17
f 31/42/18 32/41/18 34/43/18 33/44/18
f 33/44/19 34/43/19 36/45/19 35/46/19
f 35/46/20 36/45/20 38/47/20 37/48/20
f 37/48/21 38/47/21 40/49/21 39/50/21
f 39/50/22 40/49/22 42/51/22 41/52/22
f 41/52/23 42/51/23 44/53/23 43/54/23
f 43/54/24 44/53/24 46/55/24 45/56/24
f 45/56/25 46/55/25 48/57/25 47/58/25
f 47/58/26 48/57/26 50/59/26 49/60/26
f 49/60/27 50/59/27 52/61/27 51/62/27
f 51/62/28 52/61/28 54/63/28 53/64/28
f 53/64/29 54/63/29 56/65/29 55/66/29
f 55/66/30 56/65/30 58/67/30 57/68/30
f 57/68/31 58/67/31 60/69/31 59/70/31
f 59/70/32 60/69/32 62/71/32 61/72/32
f 61/72/33 62/71/33 64/73/33 63/74/33
f 63/74/34 64/73/34 66/75/34 65/76/34
f 65/76/35 66/75/35 68/77/35 67/78/35
f 67/78/36 68/77/36 70/79/36 69/80/36
f 69/80/37 70/79/37 72/81/37 71/82/37
f 71/82/38 72/81/38 74/83/38 73/84/38
f 16/85/39 14/86/39 76/87/39 74/88/39 72/89/39 70/90/39 68/91/39 66/92/39 64/93/39 62/94/39 60/95/39 58/96/39 56/97/39 54/98/39 52/99/39 50/100/39 48/101/39 46/102/39 44/103/39 42/104/39 40/105/39 38/106/39 36/107/39 34/108/39 32/109/39 30/110/39 28/111/39 26/112/39 24/113/39 22/114/39 20/115/39 18/116/39
f 73/84/40 74/83/40 76/117/40 75/118/40
f 75/118/41 76/117/41 14/119/41 13/120/41
f 13/121/42 15/122/42 17/123/42 19/124/42 21/125/42 23/126/42 25/127/42 27/128/42 29/129/42 31/130/42 33/131/42 35/132/42 37/133/42 39/134/42 41/135/42 43/136/42 45/137/42 47/138/42 49/139/42 51/140/42 53/141/42 55/142/42 57/143/42 59/144/42 61/145/42 63/146/42 65/147/42 67/148/42 69/149/42 71/150/42 73/151/42 75/152/42
o Cube.001
v -1.877828 -0.201188 0.422536
v -1.877828 -0.145111 0.478613
v -1.933905 -0.145111 0.422536
v -1.877828 0.145111 0.478613
v -1.877828 0.201188 0.422536
v -1.933905 0.145111 0.422536
v -1.877828 -0.201188 -0.422536
v -1.933905 -0.145111 -0.422536
v -1.877828 -0.145111 -0.478613
v -1.877828 0.201188 -0.422536
v -1.877828 0.145111 -0.478613
v -1.933905 0.145111 -0.422536
v -1.587607 -0.201188 0.422536
v -1.531530 -0.145111 0.422536
v -1.587607 -0.145111 0.478613
v -1.587607 0.201188 0.422536
v -1.587607 0.145111 0.478613
v -1.531530 0.145111 0.422536
v -1.587607 -0.201188 -0.422536
v -1.587607 -0.145111 -0.478613
v -1.531530 -0.145111 -0.422536
v -1.587607 0.201188 -0.422536
v -1.531530 0.145111 -0.422536
v -1.587607 0.145111 -0.478613
vt 0.409841 0.784841
vt 0.590159 0.784841
vt 0.590159 0.965159
vt 0.409841 0.965159
vt 0.409841 0.514646
vt 0.590159 0.514646
vt 0.590159 0.735354
vt 0.409841 0.735354
vt 0.659841 0.514646
vt 0.840159 0.514646
vt 0.840159 0.735354
vt 0.659841 0.735354
vt 0.409841 0.014646
vt 0.590159 0.014646
vt 0.590159 0.235354
vt 0.409841 0.235354
vt 0.409841 0.284841
vt 0.590159 0.284841
vt 0.590159 0.465159
vt 0.409841 0.465159
vt 0.159841 0.735354
vt 0.159841 0.750000
vt 0.125000 0.735354
vt 0.625000 0.965159
vt 0.590159 1.000000
vt 0.159841 0.514646
vt 0.125000 0.514646
vt 0.159841 0.500000
vt 0.840159 0.500000
vt 0.875000 0.514646
vt 0.340159 0.735354
vt 0.375000 0.735354
vt 0.340159 0.750000
vt 0.659841 0.750000
vt 0.625000 0.735354
vt 0.340159 0.514646
vt 0.340159 0.500000
vt 0.375000 0.514646
vt 0.625000 0.514646
vt 0.659841 0.500000
vt 0.409841 1.000000
vt 0.875000 0.735354
vt 0.840159 0.750000
vn 0.0000 0.0000 1.0000
vn 1.0000 0.0000 0.0000
vn 0.0000 1.0000 0.0000
vn -1.0000 0.0000 0.0000
vn 0.0000 0.0000 -1.0000
vn -0.5774 -0.5773 0.5774
vn -0.5774 0.5773 0.5774
vn -0.5774 -0.5773 -0.5774
vn -0.5774 0.5773 -0.5774
vn 0.5773 -0.5774 0.5774
vn 0.5773 0.5774 0.5774
vn 0.5773 -0.5774 -0.5774
vn 0.5773 0.5774 -0.5774
vn -0.7071 -0.7071 0.0000
vn -0.7071 0.0000 0.7071
vn -0.7071 0.7071 0.0000
vn -0.7071 0.0000 -0.7071
vn 0.0000 -0.7071 -0.7071
vn 0.0000 0.7071 -0.7071
vn 0.7071 0.0000 -0.7071
vn 0.7071 -0.7071 0.0000
vn 0.7071 0.7071 0.0000
vn 0.7071 0.0000 0.7071
vn 0.0000 -0.7071 0.7071
vn 0.0000 0.7071 0.7071
vn 0.0000 -1.0000 0.0000
usemtl a
s off
f 91/153/43 93/154/43 80/155/43 78/156/43
f 97/157/44 99/158/44 94/159/44 90/160/44
f 98/161/45 86/162/45 81/163/45 92/164/45
f 79/165/46 82/166/46 88/167/46 84/168/46
f 85/169/47 87/170/47 100/171/47 96/172/47
f 77/173/48 78/174/48 79/175/48
f 80/155/49 81/176/49 82/177/49
f 83/178/50 84/179/50 85/180/50
f 86/162/51 87/181/51 88/182/51
f 89/183/52 90/184/52 91/185/52
f 92/164/53 93/186/53 94/187/53
f 95/188/54 96/189/54 97/190/54
f 98/161/55 99/191/55 100/192/55
f 83/178/56 77/173/56 79/175/56 84/179/56
f 78/156/57 80/155/57 82/177/57 79/193/57
f 81/163/58 86/162/58 88/182/58 82/194/58
f 87/170/59 85/169/59 84/168/59 88/167/59
f 95/188/60 83/178/60 85/180/60 96/189/60
f 86/162/61 98/161/61 100/192/61 87/181/61
f 99/158/62 97/157/62 96/172/62 100/171/62
f 89/183/63 95/188/63 97/157/63 90/160/63
f 98/161/64 92/164/64 94/159/64 99/158/64
f 93/154/65 91/153/65 90/160/65 94/159/65
f 77/173/66 89/183/66 91/185/66 78/174/66
f 92/164/67 81/163/67 80/195/67 93/186/67
f 83/178/68 95/188/68 89/183/68 77/173/68
o Cube.002
v -0.072416 0.391937 -0.392888
v -0.011722 0.331243 -0.392888
v -0.072416 0.331243 -0.453582
v -0.011722 0.059830 -0.392888
v -0.072416 -0.000864 -0.392888
v -0.072416 0.059830 -0.453582
v -0.072416 0.331243 0.453582
v -0.011722 0.331243 0.392888
v -0.072416 0.391937 0.392888
v -0.072416 -0.000864 0.392888
v -0.011722 0.059830 0.392888
v -0.072416 0.059830 0.453582
v -0.343829 0.391937 -0.392888
v -0.343829 0.331243 -0.453582
v -0.404523 0.331243 -0.392888
v -0.343829 0.059830 -0.453582
v -0.343829 -0.000864 -0.392888
v -0.404523 0.059830 -0.392888
v -0.343829 0.391937 0.392888
v -0.404523 0.331243 0.392888
v -0.343829 0.331243 0.453582
v -0.343829 0.059830 0.453582
v -0.404523 0.059830 0.392888
v -0.343829 -0.000864 0.392888
vt 0.163629 0.516726
vt 0.336371 0.516726
vt 0.336371 0.733274
vt 0.163629 0.733274
vt 0.413629 0.288629
vt 0.586371 0.288629
vt 0.586371 0.461371
vt 0.413629 0.461371
vt 0.413629 0.016726
vt 0.586371 0.016726
vt 0.586371 0.233274
vt 0.413629 0.233274
vt 0.413629 0.788629
vt 0.586371 0.788629
vt 0.586371 0.961371
vt 0.413629 0.961371
vt 0.413629 0.516726
vt 0.586371 0.516726
vt 0.586371 0.733274
vt 0.413629 0.733274
vt 0.663629 0.516726
vt 0.625000 0.516726
vt 0.663629 0.500000
vt 0.375000 0.516726
vt 0.413629 0.500000
vt 0.586371 0.750000
vt 0.625000 0.788629
vt 0.375000 0.733274
vt 0.336371 0.750000
vt 0.836371 0.516726
vt 0.836371 0.500000
vt 0.875000 0.516726
vt 0.375000 0.288629
vt 0.413629 0.250000
vt 0.836371 0.733274
vt 0.875000 0.733274
vt 0.836371 0.750000
vt 0.413629 1.000000
vt 0.375000 0.961371
vt 0.663629 0.733274
vt 0.663629 0.750000
vt 0.163629 0.750000
vt 0.163629 0.500000
vt 0.336371 0.500000
vt 0.125000 0.733274
vt 0.125000 0.516726
vt 0.586371 1.000000
vn 0.0000 -1.0000 0.0000
vn 0.0000 0.0000 -1.0000
vn -1.0000 0.0000 0.0000
vn 0.0000 0.0000 1.0000
vn 1.0000 0.0000 0.0000
vn 0.5774 0.5773 -0.5774
vn 0.5774 -0.5773 -0.5774
vn 0.5774 0.5773 0.5774
vn 0.5774 -0.5773 0.5774
vn -0.5773 0.5774 -0.5774
vn -0.5773 -0.5774 -0.5774
vn -0.5773 0.5774 0.5774
vn -0.5773 -0.5774 0.5774
vn 0.0000 0.7071 0.7071
vn 0.0000 -0.7071 0.7071
vn 0.7071 0.7071 0.0000
vn 0.7071 0.0000 -0.7071
vn 0.0000 0.7071 -0.7071
vn 0.0000 -0.7071 -0.7071
vn -0.7071 -0.7071 0.0000
vn -0.7071 0.0000 -0.7071
vn -0.7071 0.0000 0.7071
vn -0.7071 0.7071 0.0000
vn 0.7071 0.0000 0.7071
vn 0.7071 -0.7071 0.0000
vn 0.0000 1.0000 0.0000
usemtl Material
s off
f 117/196/69 105/197/69 110/198/69 124/199/69
f 116/200/70 114/201/70 103/202/70 106/203/70
f 123/204/71 120/205/71 115/206/71 118/207/71
f 112/208/72 107/209/72 121/210/72 122/211/72
f 104/212/73 102/213/73 108/214/73 111/215/73
f 101/216/74 102/217/74 103/218/74
f 104/212/75 105/219/75 106/220/75
f 107/209/76 108/221/76 109/222/76
f 110/198/77 111/223/77 112/224/77
f 113/225/78 114/226/78 115/227/78
f 116/200/79 117/228/79 118/229/79
f 119/230/80 120/231/80 121/232/80
f 122/211/81 123/233/81 124/234/81
f 109/235/82 119/230/82 121/232/82 107/236/82
f 124/199/83 110/198/83 112/224/83 122/237/83
f 101/216/84 109/235/84 108/214/84 102/213/84
f 102/213/85 104/212/85 106/203/85 103/202/85
f 113/225/86 101/216/86 103/218/86 114/226/86
f 105/197/87 117/196/87 116/238/87 106/239/87
f 117/196/88 124/199/88 123/240/88 118/241/88
f 114/201/89 116/200/89 118/207/89 115/206/89
f 122/211/90 121/210/90 120/242/90 123/233/90
f 119/230/91 113/225/91 115/227/91 120/231/91
f 107/209/92 112/208/92 111/215/92 108/214/92
f 110/198/93 105/197/93 104/212/93 111/215/93
f 101/216/94 113/225/94 119/230/94 109/235/94
o Cube.003
v -0.097468 0.404734 -0.320359
v -0.047978 0.355244 -0.320359
v -0.097468 0.355244 -0.369849
v -0.047978 0.133935 -0.320359
v -0.097468 0.084445 -0.320359
v -0.097468 0.133935 -0.369849
v -0.097468 0.355244 0.369849
v -0.047978 0.355244 0.320359
v -0.097468 0.404734 0.320359
v -0.097468 0.084445 0.320359
v -0.047978 0.133935 0.320359
v -0.097468 0.133935 0.369849
v -0.318777 0.404734 -0.320359
v -0.318777 0.355244 -0.369849
v -0.368267 0.355244 -0.320359
v -0.318777 0.133935 -0.369849
v -0.318777 0.084445 -0.320359
v -0.368267 0.133935 -0.320359
v -0.318777 0.404734 0.320359
v -0.368267 0.355244 0.320359
v -0.318777 0.355244 0.369849
v -0.318777 0.133935 0.369849
v -0.368267 0.133935 0.320359
v -0.318777 0.084445 0.320359
vt 0.163629 0.516726
vt 0.336371 0.516726
vt 0.336371 0.733274
vt 0.163629 0.733274
vt 0.413629 0.288629
vt 0.586371 0.288629
vt 0.586371 0.461371
vt 0.413629 0.461371
vt 0.413629 0.016726
vt 0.586371 0.016726
vt 0.586371 0.233274
vt 0.413629 0.233274
vt 0.413629 0.788629
vt 0.586371 0.788629
vt 0.586371 0.961371
vt 0.413629 0.961371
vt 0.413629 0.516726
vt 0.586371 0.516726
vt 0.586371 0.733274
vt 0.413629 0.733274
vt 0.663629 0.516726
vt 0.625000 0.516726
vt 0.663629 0.500000
vt 0.375000 0.516726
vt 0.413629 0.500000
vt 0.586371 0.750000
vt 0.625000 0.788629
vt 0.375000 0.733274
vt 0.336371 0.750000
vt 0.836371 0.516726
vt 0.836371 0.500000
vt 0.875000 0.516726
vt 0.375000 0.288629
vt 0.413629 0.250000
vt 0.836371 0.733274
vt 0.875000 0.733274
vt 0.836371 0.750000
vt 0.413629 1.000000
vt 0.375000 0.961371
vt 0.663629 0.733274
vt 0.663629 0.750000
vt 0.163629 0.750000
vt 0.163629 0.500000
vt 0.336371 0.500000
vt 0.125000 0.733274
vt 0.125000 0.516726
vt 0.586371 1.000000
vn 0.0000 -1.0000 0.0000
vn 0.0000 0.0000 -1.0000
vn -1.0000 0.0000 0.0000
vn 0.0000 0.0000 1.0000
vn 1.0000 0.0000 0.0000
vn 0.5774 0.5774 -0.5774
vn 0.5774 -0.5774 -0.5774
vn 0.5774 0.5774 0.5774
vn 0.5774 -0.5774 0.5774
vn -0.5774 0.5774 -0.5774
vn -0.5774 -0.5774 -0.5774
vn -0.5774 0.5774 0.5774
vn -0.5774 -0.5774 0.5774
vn 0.0000 0.7071 0.7071
vn 0.0000 -0.7071 0.7071
vn 0.7071 0.7071 0.0000
vn 0.7071 0.0000 -0.7071
vn 0.0000 0.7071 -0.7071
vn 0.0000 -0.7071 -0.7071
vn -0.7071 -0.7071 0.0000
vn -0.7071 0.0000 -0.7071
vn -0.7071 0.0000 0.7071
vn -0.7071 0.7071 0.0000
vn 0.7071 0.0000 0.7071
vn 0.7071 -0.7071 0.0000
vn 0.0000 1.0000 0.0000
usemtl Material.003
s off
f 141/243/95 129/244/95 134/245/95 148/246/95
f 140/247/96 138/248/96 127/249/96 130/250/96
f 147/251/97 144/252/97 139/253/97 142/254/97
f 136/255/98 131/256/98 145/257/98 146/258/98
f 128/259/99 126/260/99 132/261/99 135/262/99
f 125/263/100 126/264/100 127/265/100
f 128/259/101 129/266/101 130/267/101
f 131/256/102 132/268/102 133/269/102
f 134/245/103 135/270/103 136/271/103
f 137/272/104 138/273/104 139/274/104
f 140/247/105 141/275/105 142/276/105
f 143/277/106 144/278/106 145/279/106
f 146/258/107 147/280/107 148/281/107
f 133/282/108 143/277/108 145/279/108 131/283/108
f 148/246/109 134/245/109 136/271/109 146/284/109
f 125/263/110 133/282/110 132/261/110 126/260/110
f 126/260/111 128/259/111 130/250/111 127/249/111
f 137/272/112 125/263/112 127/265/112 138/273/112
f 129/244/113 141/243/113 140/285/113 130/286/113
f 141/243/114 148/246/114 147/287/114 142/288/114
f 138/248/115 140/247/115 142/254/115 139/253/115
f 146/258/116 145/257/116 144/289/116 147/280/116
f 143/277/117 137/272/117 139/274/117 144/278/117
f 131/256/118 136/255/118 135/262/118 132/261/118
f 134/245/119 129/244/119 128/259/119 135/262/119
f 125/263/120 137/272/120 143/277/120 133/282/120
